<svg width="27" height="27" viewBox="0 0 27 27" fill="none" xmlns="http://www.w3.org/2000/svg">
<g clip-path="url(#clip0_131_134)">
<path d="M27 4.21875C27 5.16797 26.2459 6.04336 24.975 6.75C23.4404 7.59902 21.1518 8.2002 18.5256 8.37949C18.3305 8.28457 18.1354 8.19492 17.9297 8.11582C15.852 7.2457 13.0887 6.75 10.125 6.75C9.6873 6.75 9.26016 6.76055 8.83301 6.78164L8.775 6.75C7.5041 6.04336 6.75 5.16797 6.75 4.21875C6.75 1.88789 11.2852 0 16.875 0C22.4648 0 27 1.88789 27 4.21875ZM8.47441 8.49551C9.0123 8.45859 9.56602 8.4375 10.125 8.4375C13.4051 8.4375 16.316 9.08613 18.167 10.0934C19.4748 10.8053 20.25 11.6912 20.25 12.6562C20.25 12.8672 20.2131 13.0729 20.1393 13.2732C19.8967 13.9693 19.2428 14.6074 18.2936 15.1453C18.2883 15.1506 18.2777 15.1506 18.2725 15.1559C18.2566 15.1664 18.2408 15.1717 18.225 15.1822C16.3793 16.2053 13.4367 16.8697 10.125 16.8697C6.98203 16.8697 4.17129 16.2738 2.30977 15.3352C2.20957 15.2877 2.11465 15.235 2.01973 15.1822C0.754102 14.4809 0 13.6055 0 12.6562C0 10.8211 2.81602 9.25488 6.75 8.68008C7.30371 8.60098 7.87852 8.5377 8.47441 8.49551ZM21.9375 12.6562C21.9375 11.5014 21.3785 10.5521 20.6666 9.84023C22.159 9.6082 23.5248 9.23906 24.685 8.75918C25.5445 8.40059 26.3461 7.95762 27 7.41445V9.28125C27 10.299 26.1299 11.2377 24.6902 11.9654C23.9203 12.3557 22.9816 12.6879 21.927 12.941C21.9322 12.8461 21.9375 12.7564 21.9375 12.6615V12.6562ZM20.25 17.7188C20.25 18.668 19.4959 19.5434 18.225 20.25C18.1301 20.3027 18.0352 20.3502 17.935 20.4029C16.0787 21.3416 13.268 21.9375 10.125 21.9375C6.81328 21.9375 3.8707 21.273 2.025 20.25C0.754102 19.5434 0 18.668 0 17.7188V15.852C0.65918 16.3951 1.45547 16.8381 2.31504 17.1967C4.39805 18.0668 7.16133 18.5625 10.125 18.5625C13.0887 18.5625 15.852 18.0668 17.935 17.1967C18.3463 17.0279 18.7418 16.8328 19.1162 16.6219C19.4379 16.4426 19.7385 16.2422 20.0232 16.0312C20.1023 15.9732 20.1762 15.91 20.25 15.852V17.7188ZM21.9375 17.7188V14.6654C22.9395 14.4439 23.8623 14.1645 24.685 13.8217C25.5445 13.4631 26.3461 13.0201 27 12.477V14.3438C27 14.8975 26.7363 15.4512 26.2143 15.9732C25.3547 16.8328 23.8412 17.5395 21.927 17.9982C21.9322 17.9086 21.9375 17.8137 21.9375 17.7188ZM10.125 23.625C13.0887 23.625 15.852 23.1293 17.935 22.2592C18.7945 21.9006 19.5961 21.4576 20.25 20.9145V22.7812C20.25 25.1121 15.7148 27 10.125 27C4.53516 27 0 25.1121 0 22.7812V20.9145C0.65918 21.4576 1.45547 21.9006 2.31504 22.2592C4.39805 23.1293 7.16133 23.625 10.125 23.625Z" fill="#4600DC"/>
</g>
<defs>
<clipPath id="clip0_131_134">
<rect width="27" height="27" fill="white"/>
</clipPath>
</defs>
</svg>
