<svg width="32" height="26" viewBox="0 0 32 26" fill="none" xmlns="http://www.w3.org/2000/svg">
<g clip-path="url(#clip0_131_138)">
<path d="M27.1984 12.594V12.7616L30.6834 9.22217C31.7784 8.11006 31.7784 6.3124 30.6834 5.20029L26.7784 1.23936C25.6834 0.127246 23.9134 0.127246 22.8184 1.23936L20.8134 3.27568C20.6784 3.26045 20.5384 3.25029 20.3984 3.25029H14.7984C12.9434 3.25029 11.4184 4.67217 11.2184 6.50029H11.1984V12.594C11.1984 13.7163 12.0934 14.6253 13.1984 14.6253C14.3034 14.6253 15.1984 13.7163 15.1984 12.594V8.12529H23.1984C25.4084 8.12529 27.1984 9.94326 27.1984 12.1878V12.594ZM16.7984 9.75029V12.594C16.7984 14.6151 15.1884 16.2503 13.1984 16.2503C11.2084 16.2503 9.59844 14.6151 9.59844 12.594V6.57139C7.80344 6.88623 6.30844 8.21162 5.79844 10.0347L4.97344 12.9597L1.31344 16.6769C0.218437 17.789 0.218437 19.5866 1.31344 20.6987L5.21844 24.6647C6.31344 25.7769 8.08344 25.7769 9.17844 24.6647L11.0634 22.7503C11.1084 22.7503 11.1534 22.7554 11.1984 22.7554H19.1984C20.5234 22.7554 21.5984 21.6636 21.5984 20.3179C21.5984 20.0335 21.5484 19.7593 21.4634 19.5054H21.5984C22.9234 19.5054 23.9984 18.4136 23.9984 17.0679C23.9984 16.4179 23.7484 15.8288 23.3384 15.3921C24.6234 15.1382 25.5934 13.9905 25.5984 12.6093V12.589C25.5934 11.0249 24.3434 9.75537 22.7984 9.75537H16.7984V9.75029Z" fill="#4600DC"/>
</g>
<defs>
<clipPath id="clip0_131_138">
<rect width="32" height="26" fill="white"/>
</clipPath>
</defs>
</svg>
