<svg width="35" height="27" viewBox="0 0 35 27" fill="none" xmlns="http://www.w3.org/2000/svg">
<g id="fluent:mail-28-filled">
<path id="Vector" d="M6.89453 9.76229L17.168 15.1054C17.2711 15.159 17.3855 15.187 17.5017 15.187C17.6178 15.187 17.7323 15.159 17.8353 15.1054L28.1088 9.76325V19.0445C28.1089 19.845 27.8026 20.6152 27.2528 21.197C26.7031 21.7789 25.9515 22.1283 25.1523 22.1736L24.9749 22.1784H10.0285C9.22797 22.1785 8.4578 21.8722 7.87595 21.3225C7.2941 20.7727 6.94467 20.0211 6.89935 19.2219L6.89453 19.0445V9.76229ZM10.0285 4.82129H24.9749C25.7754 4.82124 26.5455 5.1275 27.1274 5.67726C27.7092 6.22701 28.0587 6.97858 28.104 7.77779L28.1088 7.95522V8.13265L17.5017 13.6484L6.89453 8.13265V7.95522C6.89448 7.15473 7.20074 6.38456 7.7505 5.80271C8.30026 5.22086 9.05183 4.87143 9.85103 4.82611L10.0285 4.82129Z" fill="#4600DC"/>
</g>
</svg>
