<svg width="28" height="28" viewBox="0 0 28 28" fill="none" xmlns="http://www.w3.org/2000/svg">
<g clip-path="url(#clip0_131_142)">
<path d="M22.4378 12.6326L23.0558 12.0146L21.2019 10.1607L17.8058 6.76465L15.9519 4.91074L15.3339 5.52871L14.098 6.76465L3.2042 17.6584C2.63545 18.2271 2.21983 18.9326 1.99014 19.7037L0.0542047 26.2881C-0.082514 26.7475 0.0432672 27.2451 0.387798 27.5842C0.73233 27.9232 1.22452 28.049 1.68389 27.9178L8.2628 25.9818C9.03389 25.7521 9.73936 25.3365 10.3081 24.7678L21.2019 13.874L22.4378 12.6326ZM8.74952 21.842L8.25186 23.0834C8.03311 23.2529 7.78702 23.3787 7.52452 23.4607L3.24795 24.7186L4.50577 20.4475C4.58233 20.1795 4.71358 19.9334 4.88311 19.7201L6.12452 19.2225V20.9725C6.12452 21.4537 6.51827 21.8475 6.99952 21.8475H8.74952V21.842ZM19.8347 1.02246L19.0472 1.81543L17.8112 3.05137L17.1878 3.66934L19.0417 5.52324L22.4378 8.91934L24.2917 10.7732L24.9097 10.1553L26.1456 8.91934L26.9386 8.12637C28.3058 6.75918 28.3058 4.54434 26.9386 3.17715L24.7894 1.02246C23.4222 -0.344727 21.2073 -0.344727 19.8401 1.02246H19.8347Z" fill="#4600DC"/>
</g>
<defs>
<clipPath id="clip0_131_142">
<rect width="28" height="28" fill="white"/>
</clipPath>
</defs>
</svg>
