<svg width="30" height="30" viewBox="0 0 30 30" fill="none" xmlns="http://www.w3.org/2000/svg">
<g clip-path="url(#clip0_131_128)">
<path d="M17.7922 23.75C18.8735 23.75 19.4447 25.03 18.7235 25.835C18.2549 26.3593 17.6809 26.7787 17.0389 27.0656C16.397 27.3526 15.7016 27.5006 14.9985 27.5C14.2953 27.5006 13.6 27.3526 12.958 27.0656C12.3161 26.7787 11.742 26.3593 11.2735 25.835C10.5835 25.065 11.076 23.8612 12.066 23.7588L12.2035 23.7512L17.7922 23.75ZM14.9985 2.5C16.696 2.5 18.131 3.62875 18.5922 5.17625L18.6497 5.39L18.6597 5.44375C20.0377 6.22113 21.2119 7.31388 22.0862 8.6325C22.9605 9.95112 23.51 11.4581 23.6897 13.03L23.7247 13.3888L23.7485 13.75V17.4137L23.7747 17.5838C23.9459 18.5048 24.4556 19.3284 25.2035 19.8925L25.4122 20.0387L25.6147 20.1625C26.6897 20.7712 26.3147 22.37 25.1435 22.4925L24.9985 22.5H4.99847C3.71347 22.5 3.26472 20.795 4.38222 20.1625C4.85851 19.893 5.27003 19.5224 5.58789 19.077C5.90576 18.6315 6.12227 18.1218 6.22222 17.5838L6.24847 17.405L6.24972 13.6925C6.32593 12.0598 6.80117 10.4708 7.63383 9.06433C8.46648 7.65791 9.63118 6.47701 11.026 5.625L11.336 5.4425L11.3485 5.38875C11.5253 4.64128 11.9272 3.96605 12.4998 3.45417C13.0725 2.94229 13.7884 2.61842 14.551 2.52625L14.7785 2.505L14.9985 2.5Z" fill="#4600DC"/>
</g>
<defs>
<clipPath id="clip0_131_128">
<rect width="30" height="30" fill="white"/>
</clipPath>
</defs>
</svg>
