<svg width="35" height="35" viewBox="0 0 35 35" fill="none" xmlns="http://www.w3.org/2000/svg">
<g id="fluent:phone-shake-24-filled">
<path id="Vector" d="M17.9912 5.93565C18.4074 5.82381 18.8416 5.79508 19.269 5.85109C19.6964 5.9071 20.1085 6.04676 20.4819 6.26209C20.8552 6.47742 21.1825 6.76419 21.445 7.10604C21.7076 7.44789 21.9001 7.83811 22.0118 8.2544L26.0339 23.2607C26.1455 23.677 26.1739 24.1112 26.1176 24.5386C26.0613 24.9659 25.9213 25.378 25.7057 25.7512C25.4901 26.1245 25.2031 26.4516 24.8611 26.7139C24.519 26.9761 24.1286 27.1685 23.7122 27.2798L17.0112 29.0736C16.1705 29.2985 15.275 29.1802 14.5215 28.7448C13.7681 28.3094 13.2184 27.5925 12.9935 26.7519L8.97577 11.7515C8.75078 10.9112 8.86864 10.016 9.30345 9.26263C9.73825 8.50925 10.4544 7.95933 11.2945 7.73378L17.9912 5.93565ZM21.4183 22.2836C21.3434 22.0034 21.1603 21.7644 20.9092 21.6192C20.6582 21.474 20.3597 21.4344 20.0795 21.5092L17.262 22.2646L17.122 22.3127C16.8691 22.4218 16.6667 22.6222 16.5551 22.8741C16.4436 23.1259 16.4311 23.4105 16.5203 23.671C16.6094 23.9316 16.7936 24.149 17.036 24.2797C17.2783 24.4105 17.5611 24.4449 17.8278 24.3763L20.6453 23.6223L20.7868 23.5742C21.0307 23.4718 21.2293 23.2844 21.3456 23.0469C21.462 22.8093 21.4883 22.5376 21.4197 22.2821L21.4183 22.2836ZM27.2356 3.49003C27.3042 3.36376 27.3972 3.25227 27.509 3.16193C27.6208 3.0716 27.7493 3.00419 27.8872 2.96355C28.025 2.92292 28.1696 2.90987 28.3125 2.92513C28.4554 2.9404 28.594 2.98369 28.7201 3.05253C29.1853 3.30774 29.8197 3.79628 30.4453 4.55607C31.0753 5.32169 31.561 6.2244 31.8395 7.26857C32.2193 8.66982 32.1613 10.1537 31.6733 11.5211C31.5574 11.8657 31.4074 12.1979 31.2256 12.5127C31.0814 12.7495 30.8526 12.9228 30.5856 12.9973C30.3185 13.0719 30.0331 13.0423 29.7871 12.9145C29.5411 12.7866 29.3528 12.5701 29.2603 12.3087C29.1678 12.0474 29.178 11.7606 29.2889 11.5065L29.3574 11.3752C29.9163 10.2814 30.0488 9.01898 29.7293 7.83294C29.5459 7.14133 29.2151 6.49757 28.7595 5.94586C28.3293 5.42524 27.9108 5.10149 27.6731 4.97169C27.4184 4.83297 27.2293 4.59881 27.1473 4.3207C27.0652 4.04259 27.097 3.74474 27.2356 3.49003ZM25.5176 6.47961C25.6937 6.24915 25.954 6.09803 26.2414 6.05947C26.5288 6.02091 26.8198 6.09807 27.0503 6.27399C27.3133 6.48087 27.5477 6.72164 27.7474 6.99003C28.0216 7.35315 28.2345 7.75565 28.3541 8.2019C28.5247 8.83919 28.4897 9.47357 28.3351 10.0744L28.2593 10.3325C28.2385 10.3971 28.2151 10.4608 28.1893 10.5236C28.0832 10.7808 27.8831 10.9879 27.6297 11.1028C27.3763 11.2176 27.0886 11.2316 26.8253 11.1418C26.5619 11.0521 26.3427 10.8653 26.2122 10.6196C26.0817 10.3739 26.0498 10.0876 26.1228 9.81919L26.1958 9.60336C26.2866 9.33408 26.3017 9.04503 26.2395 8.76774C26.1905 8.60196 26.1103 8.44704 26.0033 8.31128C25.9341 8.21919 25.857 8.13331 25.7729 8.05461L25.7247 8.01378C25.494 7.83797 25.3426 7.57773 25.3038 7.2903C25.265 7.00288 25.3419 6.71033 25.5176 6.47961ZM3.69952 22.4761C3.8377 22.235 4.06244 22.0556 4.32812 21.9742C4.59379 21.8928 4.88047 21.9156 5.12995 22.038C5.37942 22.1603 5.573 22.373 5.67135 22.6328C5.76971 22.8927 5.76548 23.1803 5.65952 23.4371L5.52097 23.7186C5.05504 24.7929 4.96863 25.9938 5.27597 27.1238C5.47139 27.8529 5.80535 28.4873 6.23993 29.0327C6.61618 29.5023 6.98368 29.8188 7.2316 29.9836L7.32931 30.0448C7.4547 30.1161 7.56475 30.2115 7.65313 30.3255C7.74151 30.4395 7.80646 30.5699 7.84426 30.7091C7.88205 30.8483 7.89193 30.9936 7.87334 31.1366C7.85475 31.2797 7.80805 31.4176 7.73592 31.5425C7.6638 31.6674 7.56768 31.7769 7.4531 31.8645C7.33852 31.9521 7.20773 32.0162 7.06828 32.0531C6.92883 32.0899 6.78346 32.0988 6.64055 32.0793C6.49763 32.0598 6.35999 32.0121 6.23556 31.9392C5.77618 31.6738 5.1491 31.1707 4.53223 30.3977C3.8925 29.6 3.42612 28.6777 3.16285 27.6896C2.78263 26.292 2.82578 24.8131 3.28681 23.44C3.43264 23.0025 3.58431 22.6759 3.69952 22.4775V22.4761ZM6.81306 24.439C6.91988 24.1841 7.11926 23.979 7.3711 23.8651C7.62294 23.7512 7.90857 23.7369 8.17054 23.825C8.43252 23.9132 8.65141 24.0972 8.78321 24.3402C8.91501 24.5831 8.94994 24.867 8.88097 25.1346L8.80952 25.3504C8.71915 25.6203 8.70403 25.9097 8.76577 26.1875C8.80806 26.3377 8.88972 26.4938 9.00493 26.6484C9.09243 26.7636 9.17702 26.8525 9.23535 26.9079L9.28347 26.9488C9.50504 27.1285 9.64761 27.3877 9.68077 27.6711C9.71393 27.9545 9.63505 28.2396 9.46096 28.4656C9.28687 28.6916 9.03135 28.8407 8.7489 28.881C8.46646 28.9213 8.17945 28.8496 7.9491 28.6813C7.68759 28.4731 7.45467 28.2314 7.25639 27.9623C6.97983 27.6023 6.77533 27.1923 6.6541 26.7548C6.49744 26.1408 6.50246 25.4967 6.66868 24.8852L6.74452 24.6286C6.76495 24.5645 6.78782 24.5013 6.81306 24.439Z" fill="#303030"/>
</g>
</svg>
