<svg width="25" height="26" viewBox="0 0 25 26" fill="none" xmlns="http://www.w3.org/2000/svg">
<g id="basil:viber-solid" clip-path="url(#clip0_131_144)">
<path id="Vector" fill-rule="evenodd" clip-rule="evenodd" d="M18.3452 0.777557C14.4124 -0.0931699 10.3341 -0.0931699 6.40141 0.777557L5.97766 0.870414C4.87143 1.11538 3.85542 1.65931 3.0425 2.44176C2.22957 3.22422 1.65155 4.21456 1.37266 5.30279C0.37578 9.19354 0.37578 13.2693 1.37266 17.16C1.63863 18.1979 2.17692 19.1476 2.93295 19.913C3.68898 20.6783 4.63589 21.2321 5.67766 21.5181L6.25891 24.9551C6.27746 25.0642 6.32522 25.1664 6.3972 25.2511C6.46918 25.3357 6.56276 25.3997 6.66819 25.4364C6.77362 25.473 6.88704 25.481 6.99665 25.4595C7.10626 25.438 7.20805 25.3878 7.29141 25.3141L10.7052 22.2895C13.2678 22.4444 15.8396 22.2414 18.3452 21.6865L18.7702 21.5937C19.8764 21.3487 20.8924 20.8048 21.7053 20.0223C22.5183 19.2399 23.0963 18.2495 23.3752 17.1613C24.3719 13.2705 24.3719 9.19479 23.3752 5.30403C23.0962 4.21564 22.518 3.22519 21.7048 2.44272C20.8916 1.66025 19.8754 1.11642 18.7689 0.871652L18.3452 0.777557ZM7.45641 5.20251C7.22409 5.16902 6.9872 5.21533 6.78516 5.33375H6.76766C6.29891 5.60613 5.87641 5.94908 5.51641 6.3527C5.21641 6.69565 5.05391 7.04232 5.01141 7.3766C4.98641 7.5747 5.00391 7.77527 5.06266 7.9647L5.08516 7.97708C5.42266 8.95889 5.86266 9.90356 6.40016 10.7925C7.09322 12.0411 7.9461 13.1959 8.93766 14.2282L8.96766 14.2703L9.01516 14.305L9.04391 14.3384L9.07891 14.3681C10.1248 15.3532 11.2934 16.202 12.5564 16.8938C14.0002 17.6726 14.8764 18.0403 15.4027 18.1938V18.2013C15.5564 18.2483 15.6964 18.2694 15.8377 18.2694C16.2858 18.2366 16.71 18.0561 17.0427 17.7568C17.4489 17.4002 17.7927 16.9805 18.0602 16.5137V16.5051C18.3114 16.0346 18.2264 15.5914 17.8639 15.2905C17.1358 14.6604 16.3484 14.1007 15.5127 13.6191C14.9527 13.3182 14.3839 13.5002 14.1539 13.8048L13.6627 14.4189C13.4102 14.7235 12.9527 14.6814 12.9527 14.6814L12.9402 14.6888C9.52641 13.8258 8.61516 10.4025 8.61516 10.4025C8.61516 10.4025 8.57266 9.93699 8.88891 9.69927L9.50391 9.20899C9.79891 8.97127 10.0039 8.40918 9.68766 7.85451C9.20467 7.02593 8.64071 6.24632 8.00391 5.52689C7.86502 5.35757 7.67024 5.24226 7.45391 5.20127L7.45641 5.20251ZM13.2239 3.71432C13.0581 3.71432 12.8992 3.77954 12.782 3.89563C12.6648 4.01173 12.5989 4.16918 12.5989 4.33337C12.5989 4.49755 12.6648 4.655 12.782 4.7711C12.8992 4.88719 13.0581 4.95241 13.2239 4.95241C14.8052 4.95241 16.1177 5.46375 17.1564 6.44432C17.6902 6.98041 18.1064 7.61556 18.3789 8.31137C18.6527 9.00841 18.7777 9.75251 18.7452 10.4978C18.7417 10.5791 18.7545 10.6603 18.7827 10.7367C18.8109 10.8131 18.8541 10.8833 18.9097 10.9432C19.0219 11.0642 19.1781 11.136 19.3439 11.1429C19.5097 11.1498 19.6714 11.0912 19.7935 10.98C19.9157 10.8687 19.9882 10.714 19.9952 10.5498C20.0339 9.63301 19.8803 8.71819 19.5439 7.86318C19.2061 7.00411 18.6938 6.22285 18.0389 5.56775L18.0264 5.55537C16.7377 4.33584 15.1064 3.71432 13.2239 3.71432ZM13.1814 5.74975C13.0156 5.74975 12.8567 5.81497 12.7395 5.93106C12.6223 6.04716 12.5564 6.20461 12.5564 6.36879C12.5564 6.53298 12.6223 6.69043 12.7395 6.80653C12.8567 6.92262 13.0156 6.98784 13.1814 6.98784H13.2027C14.3427 7.06832 15.1727 7.4447 15.7539 8.06251C16.3502 8.69889 16.6589 9.49003 16.6352 10.4681C16.6313 10.6323 16.6935 10.7913 16.8081 10.91C16.9226 11.0288 17.08 11.0976 17.2458 11.1014C17.4115 11.1052 17.572 11.0436 17.6919 10.9302C17.8118 10.8167 17.8813 10.6608 17.8852 10.4966C17.9152 9.2127 17.4977 8.1046 16.6702 7.2206V7.21813C15.8239 6.31927 14.6627 5.84384 13.2652 5.75099L13.2439 5.74851L13.1814 5.74975ZM13.1577 7.82356C13.074 7.81625 12.9897 7.82571 12.9099 7.85137C12.83 7.87703 12.7562 7.91837 12.6928 7.97292C12.6294 8.02747 12.5778 8.09411 12.541 8.16886C12.5042 8.24361 12.4829 8.32494 12.4786 8.408C12.4742 8.49105 12.4868 8.57413 12.5155 8.65226C12.5443 8.7304 12.5887 8.80199 12.646 8.86277C12.7033 8.92355 12.7724 8.97227 12.8491 9.00601C12.9259 9.03975 13.0087 9.05784 13.0927 9.05918C13.6152 9.08641 13.9489 9.24241 14.1589 9.45165C14.3702 9.66213 14.5277 10.0001 14.5564 10.5288C14.558 10.6119 14.5764 10.6938 14.6106 10.7697C14.6448 10.8455 14.6941 10.9138 14.7555 10.9704C14.8169 11.027 14.8892 11.0708 14.968 11.0992C15.0469 11.1275 15.1307 11.1399 15.2144 11.1355C15.2982 11.1311 15.3802 11.11 15.4556 11.0735C15.531 11.0371 15.5982 10.9859 15.6532 10.9232C15.7082 10.8605 15.7499 10.7874 15.7758 10.7084C15.8017 10.6293 15.8112 10.5459 15.8039 10.4632C15.7639 9.72032 15.5289 9.06413 15.0477 8.58127C14.5639 8.09841 13.9052 7.86318 13.1577 7.82356Z" fill="#6E00B1"/>
</g>
<defs>
<clipPath id="clip0_131_144">
<rect width="25" height="26" fill="white"/>
</clipPath>
</defs>
</svg>
