<svg width="28" height="27" viewBox="0 0 28 27" fill="none" xmlns="http://www.w3.org/2000/svg">
<g id="ri:whatsapp-fill">
<path id="Vector" d="M14.0024 0C21.0316 0 26.7296 5.75614 26.7296 12.8571C26.7296 19.9581 21.0316 25.7143 14.0024 25.7143C11.7532 25.718 9.54358 25.1166 7.60056 23.9721L1.28019 25.7143L3.00092 19.3269C1.86704 17.3634 1.27135 15.1303 1.2751 12.8571C1.2751 5.75614 6.9731 0 14.0024 0ZM9.66492 6.81429L9.41038 6.82457C9.24558 6.83471 9.08453 6.87845 8.93692 6.95314C8.79886 7.03212 8.67283 7.13086 8.56274 7.24629C8.41001 7.39157 8.32347 7.51757 8.23056 7.63971C7.7598 8.25802 7.50634 9.01712 7.51019 9.79714C7.51274 10.4271 7.67565 11.0404 7.93019 11.6139C8.45074 12.7736 9.30728 14.0014 10.4375 15.1393C10.7098 15.4131 10.9771 15.6883 11.2647 15.9441C12.6691 17.1932 14.3425 18.0939 16.152 18.5747L16.8749 18.6866C17.1104 18.6994 17.3458 18.6814 17.5826 18.6699C17.9532 18.6505 18.3152 18.5491 18.6427 18.3729C18.8094 18.2861 18.9721 18.1917 19.1302 18.09C19.1302 18.09 19.1849 18.054 19.2893 17.9743C19.4611 17.8457 19.5667 17.7544 19.7093 17.604C19.8149 17.4934 19.9066 17.3636 19.9766 17.2157C20.0758 17.0061 20.1751 16.6063 20.2158 16.2733C20.2464 16.0187 20.2375 15.8799 20.2336 15.7937C20.2286 15.6561 20.1153 15.5134 19.9918 15.453L19.2511 15.1174C19.2511 15.1174 18.1438 14.6301 17.4667 14.319C17.3959 14.2877 17.32 14.2699 17.2427 14.2663C17.1557 14.2573 17.0677 14.2672 16.9847 14.2953C16.9017 14.3235 16.8257 14.3693 16.7616 14.4296C16.7553 14.427 16.67 14.5003 15.7498 15.6266C15.697 15.6983 15.6243 15.7524 15.5409 15.7822C15.4574 15.812 15.3671 15.816 15.2815 15.7937C15.1986 15.7713 15.1173 15.7429 15.0384 15.7089C14.8806 15.642 14.8258 15.6163 14.7176 15.57C13.9872 15.248 13.3109 14.8129 12.7131 14.2804C12.5527 14.139 12.4038 13.9847 12.2511 13.8356C11.7504 13.3512 11.314 12.8032 10.9529 12.2053L10.8778 12.0831C10.8239 12.0011 10.7803 11.9125 10.748 11.8196C10.6996 11.6306 10.8256 11.4789 10.8256 11.4789C10.8256 11.4789 11.1349 11.1369 11.2787 10.9517C11.4187 10.7717 11.5371 10.5969 11.6135 10.4721C11.7636 10.2279 11.8107 9.97714 11.7318 9.783C11.3755 8.90357 11.0064 8.028 10.6271 7.15886C10.552 6.98657 10.3293 6.86314 10.1269 6.83871C10.0582 6.831 9.98947 6.82329 9.92074 6.81814C9.74982 6.80957 9.57855 6.81128 9.40783 6.82329L9.66365 6.813L9.66492 6.81429Z" fill="#18AB00"/>
</g>
</svg>
